<mxfile host="Electron" agent="Mozilla/5.0 (Windows NT 10.0; Win64; x64) AppleWebKit/537.36 (KHTML, like Gecko) draw.io/26.0.4 Chrome/128.0.6613.186 Electron/32.2.5 Safari/537.36" version="26.0.4">
  <diagram name="Page-1" id="zWfdDT_hjlujV034415W">
    <mxGraphModel dx="2524" dy="1936" grid="1" gridSize="10" guides="1" tooltips="1" connect="1" arrows="1" fold="1" page="1" pageScale="1" pageWidth="850" pageHeight="1100" math="0" shadow="0">
      <root>
        <mxCell id="0" />
        <mxCell id="1" parent="0" />
        <mxCell id="WoOcYyq4Y0JdaSFRxMa6-1" value="&lt;div&gt;&lt;span style=&quot;font-weight: normal;&quot; data-end=&quot;374&quot; data-start=&quot;364&quot;&gt;&amp;lt;&amp;lt;abstract&amp;gt;&amp;gt;&lt;/span&gt;&lt;/div&gt;&lt;span style=&quot;font-weight: normal;&quot; data-end=&quot;374&quot; data-start=&quot;364&quot;&gt;Person&lt;/span&gt;" style="swimlane;fontStyle=1;align=center;verticalAlign=top;childLayout=stackLayout;horizontal=1;startSize=40;horizontalStack=0;resizeParent=1;resizeParentMax=0;resizeLast=0;collapsible=1;marginBottom=0;whiteSpace=wrap;html=1;" parent="1" vertex="1">
          <mxGeometry x="360" y="20" width="160" height="170" as="geometry" />
        </mxCell>
        <mxCell id="WoOcYyq4Y0JdaSFRxMa6-2" value="- fullName: String&lt;div&gt;- address&lt;span style=&quot;background-color: transparent; color: light-dark(rgb(0, 0, 0), rgb(255, 255, 255));&quot;&gt;: String&lt;/span&gt;&lt;/div&gt;&lt;div&gt;- nationalID&lt;span style=&quot;background-color: transparent; color: light-dark(rgb(0, 0, 0), rgb(255, 255, 255));&quot;&gt;: String&lt;/span&gt;&lt;/div&gt;&lt;div&gt;- contactNumber: String&lt;/div&gt;" style="text;strokeColor=none;fillColor=none;align=left;verticalAlign=top;spacingLeft=4;spacingRight=4;overflow=hidden;rotatable=0;points=[[0,0.5],[1,0.5]];portConstraint=eastwest;whiteSpace=wrap;html=1;" parent="WoOcYyq4Y0JdaSFRxMa6-1" vertex="1">
          <mxGeometry y="40" width="160" height="70" as="geometry" />
        </mxCell>
        <mxCell id="WoOcYyq4Y0JdaSFRxMa6-3" value="" style="line;strokeWidth=1;fillColor=none;align=left;verticalAlign=middle;spacingTop=-1;spacingLeft=3;spacingRight=3;rotatable=0;labelPosition=right;points=[];portConstraint=eastwest;strokeColor=inherit;" parent="WoOcYyq4Y0JdaSFRxMa6-1" vertex="1">
          <mxGeometry y="110" width="160" height="8" as="geometry" />
        </mxCell>
        <mxCell id="WoOcYyq4Y0JdaSFRxMa6-4" value="+ getDetails(): String&lt;div&gt;//setters and getters&lt;/div&gt;" style="text;strokeColor=none;fillColor=none;align=left;verticalAlign=top;spacingLeft=4;spacingRight=4;overflow=hidden;rotatable=0;points=[[0,0.5],[1,0.5]];portConstraint=eastwest;whiteSpace=wrap;html=1;" parent="WoOcYyq4Y0JdaSFRxMa6-1" vertex="1">
          <mxGeometry y="118" width="160" height="52" as="geometry" />
        </mxCell>
        <mxCell id="WoOcYyq4Y0JdaSFRxMa6-14" style="edgeStyle=elbowEdgeStyle;rounded=0;orthogonalLoop=1;jettySize=auto;html=1;entryX=1;entryY=0.5;entryDx=0;entryDy=0;" parent="1" source="WoOcYyq4Y0JdaSFRxMa6-7" target="WoOcYyq4Y0JdaSFRxMa6-2" edge="1">
          <mxGeometry relative="1" as="geometry">
            <mxPoint x="882" y="209" as="sourcePoint" />
            <mxPoint x="580" y="140" as="targetPoint" />
          </mxGeometry>
        </mxCell>
        <mxCell id="WoOcYyq4Y0JdaSFRxMa6-6" value="&lt;div&gt;&lt;span style=&quot;font-weight: 400;&quot;&gt;&amp;lt;&amp;lt;abstract&amp;gt;&amp;gt;&lt;/span&gt;&lt;br&gt;&lt;/div&gt;Customer" style="swimlane;fontStyle=1;align=center;verticalAlign=top;childLayout=stackLayout;horizontal=1;startSize=40;horizontalStack=0;resizeParent=1;resizeParentMax=0;resizeLast=0;collapsible=1;marginBottom=0;whiteSpace=wrap;html=1;" parent="1" vertex="1">
          <mxGeometry x="780" y="70" width="210" height="220" as="geometry" />
        </mxCell>
        <mxCell id="WoOcYyq4Y0JdaSFRxMa6-7" value="- carList: List&amp;lt;Car&amp;gt;&lt;span style=&quot;background-color: transparent; color: light-dark(rgb(0, 0, 0), rgb(255, 255, 255));&quot;&gt;&amp;nbsp;&lt;/span&gt;&lt;div&gt;- fullName: String&lt;div&gt;- address&lt;span style=&quot;background-color: transparent; color: light-dark(rgb(0, 0, 0), rgb(255, 255, 255));&quot;&gt;: String&lt;/span&gt;&lt;/div&gt;&lt;div&gt;- nationalID&lt;span style=&quot;background-color: transparent; color: light-dark(rgb(0, 0, 0), rgb(255, 255, 255));&quot;&gt;: String&lt;/span&gt;&lt;/div&gt;&lt;div&gt;- contactNumber: String&lt;/div&gt;&lt;/div&gt;" style="text;strokeColor=none;fillColor=none;align=left;verticalAlign=top;spacingLeft=4;spacingRight=4;overflow=hidden;rotatable=0;points=[[0,0.5],[1,0.5]];portConstraint=eastwest;whiteSpace=wrap;html=1;" parent="WoOcYyq4Y0JdaSFRxMa6-6" vertex="1">
          <mxGeometry y="40" width="210" height="90" as="geometry" />
        </mxCell>
        <mxCell id="WoOcYyq4Y0JdaSFRxMa6-8" value="" style="line;strokeWidth=1;fillColor=none;align=left;verticalAlign=middle;spacingTop=-1;spacingLeft=3;spacingRight=3;rotatable=0;labelPosition=right;points=[];portConstraint=eastwest;strokeColor=inherit;" parent="WoOcYyq4Y0JdaSFRxMa6-6" vertex="1">
          <mxGeometry y="130" width="210" height="8" as="geometry" />
        </mxCell>
        <mxCell id="WoOcYyq4Y0JdaSFRxMa6-9" value="+ getCarList(): List&amp;lt;Car&amp;gt;&lt;div&gt;&lt;span style=&quot;background-color: transparent; color: light-dark(rgb(0, 0, 0), rgb(255, 255, 255));&quot;&gt;+calculateBill(): double&lt;/span&gt;&lt;br&gt;&lt;/div&gt;&lt;div&gt;//setters and getters&lt;/div&gt;" style="text;strokeColor=none;fillColor=none;align=left;verticalAlign=top;spacingLeft=4;spacingRight=4;overflow=hidden;rotatable=0;points=[[0,0.5],[1,0.5]];portConstraint=eastwest;whiteSpace=wrap;html=1;" parent="WoOcYyq4Y0JdaSFRxMa6-6" vertex="1">
          <mxGeometry y="138" width="210" height="82" as="geometry" />
        </mxCell>
        <mxCell id="WoOcYyq4Y0JdaSFRxMa6-15" value="PrivateCustomer" style="swimlane;fontStyle=1;align=center;verticalAlign=top;childLayout=stackLayout;horizontal=1;startSize=26;horizontalStack=0;resizeParent=1;resizeParentMax=0;resizeLast=0;collapsible=1;marginBottom=0;whiteSpace=wrap;html=1;" parent="1" vertex="1">
          <mxGeometry x="1220" y="630" width="160" height="52" as="geometry" />
        </mxCell>
        <mxCell id="WoOcYyq4Y0JdaSFRxMa6-18" value="+calculateBill(): double" style="text;strokeColor=none;fillColor=none;align=left;verticalAlign=top;spacingLeft=4;spacingRight=4;overflow=hidden;rotatable=0;points=[[0,0.5],[1,0.5]];portConstraint=eastwest;whiteSpace=wrap;html=1;" parent="WoOcYyq4Y0JdaSFRxMa6-15" vertex="1">
          <mxGeometry y="26" width="160" height="26" as="geometry" />
        </mxCell>
        <mxCell id="WoOcYyq4Y0JdaSFRxMa6-28" style="edgeStyle=elbowEdgeStyle;rounded=0;orthogonalLoop=1;jettySize=auto;html=1;elbow=vertical;entryX=0.623;entryY=0.973;entryDx=0;entryDy=0;entryPerimeter=0;" parent="1" source="WoOcYyq4Y0JdaSFRxMa6-20" target="WoOcYyq4Y0JdaSFRxMa6-9" edge="1">
          <mxGeometry relative="1" as="geometry">
            <mxPoint x="910" y="300" as="targetPoint" />
            <Array as="points">
              <mxPoint x="1010" y="500" />
            </Array>
          </mxGeometry>
        </mxCell>
        <mxCell id="WoOcYyq4Y0JdaSFRxMa6-20" value="FleetCustomer" style="swimlane;fontStyle=1;align=center;verticalAlign=top;childLayout=stackLayout;horizontal=1;startSize=26;horizontalStack=0;resizeParent=1;resizeParentMax=0;resizeLast=0;collapsible=1;marginBottom=0;whiteSpace=wrap;html=1;" parent="1" vertex="1">
          <mxGeometry x="1030" y="640" width="160" height="70" as="geometry" />
        </mxCell>
        <mxCell id="WoOcYyq4Y0JdaSFRxMa6-21" value="+ getDiscount(): double&lt;div&gt;+calculateBill(): double&lt;br&gt;&lt;/div&gt;" style="text;strokeColor=none;fillColor=none;align=left;verticalAlign=top;spacingLeft=4;spacingRight=4;overflow=hidden;rotatable=0;points=[[0,0.5],[1,0.5]];portConstraint=eastwest;whiteSpace=wrap;html=1;" parent="WoOcYyq4Y0JdaSFRxMa6-20" vertex="1">
          <mxGeometry y="26" width="160" height="44" as="geometry" />
        </mxCell>
        <mxCell id="WoOcYyq4Y0JdaSFRxMa6-22" value="StaffCustomer" style="swimlane;fontStyle=1;align=center;verticalAlign=top;childLayout=stackLayout;horizontal=1;startSize=26;horizontalStack=0;resizeParent=1;resizeParentMax=0;resizeLast=0;collapsible=1;marginBottom=0;whiteSpace=wrap;html=1;" parent="1" vertex="1">
          <mxGeometry x="840" y="630" width="160" height="80" as="geometry" />
        </mxCell>
        <mxCell id="WoOcYyq4Y0JdaSFRxMa6-23" value="+ getDiscount(): double&lt;div&gt;+calculateBill(): double&lt;br&gt;&lt;/div&gt;" style="text;strokeColor=none;fillColor=none;align=left;verticalAlign=top;spacingLeft=4;spacingRight=4;overflow=hidden;rotatable=0;points=[[0,0.5],[1,0.5]];portConstraint=eastwest;whiteSpace=wrap;html=1;" parent="WoOcYyq4Y0JdaSFRxMa6-22" vertex="1">
          <mxGeometry y="26" width="160" height="54" as="geometry" />
        </mxCell>
        <mxCell id="WoOcYyq4Y0JdaSFRxMa6-33" style="edgeStyle=elbowEdgeStyle;rounded=0;orthogonalLoop=1;jettySize=auto;html=1;entryX=0.915;entryY=0.961;entryDx=0;entryDy=0;entryPerimeter=0;elbow=vertical;" parent="1" source="WoOcYyq4Y0JdaSFRxMa6-15" target="WoOcYyq4Y0JdaSFRxMa6-9" edge="1">
          <mxGeometry relative="1" as="geometry" />
        </mxCell>
        <mxCell id="WoOcYyq4Y0JdaSFRxMa6-34" style="edgeStyle=elbowEdgeStyle;rounded=0;orthogonalLoop=1;jettySize=auto;html=1;elbow=vertical;entryX=0.418;entryY=1.001;entryDx=0;entryDy=0;entryPerimeter=0;" parent="1" source="WoOcYyq4Y0JdaSFRxMa6-22" target="WoOcYyq4Y0JdaSFRxMa6-9" edge="1">
          <mxGeometry relative="1" as="geometry">
            <mxPoint x="867" y="300" as="targetPoint" />
            <Array as="points">
              <mxPoint x="867" y="520" />
            </Array>
          </mxGeometry>
        </mxCell>
        <mxCell id="WoOcYyq4Y0JdaSFRxMa6-42" style="edgeStyle=orthogonalEdgeStyle;rounded=0;orthogonalLoop=1;jettySize=auto;html=1;" parent="1" source="WoOcYyq4Y0JdaSFRxMa6-35" target="WoOcYyq4Y0JdaSFRxMa6-4" edge="1">
          <mxGeometry relative="1" as="geometry" />
        </mxCell>
        <mxCell id="WoOcYyq4Y0JdaSFRxMa6-35" value="&lt;div&gt;&amp;lt;&amp;lt;abstract&amp;gt;&amp;gt;&lt;/div&gt;Staff" style="swimlane;fontStyle=1;align=center;verticalAlign=top;childLayout=stackLayout;horizontal=1;startSize=40;horizontalStack=0;resizeParent=1;resizeParentMax=0;resizeLast=0;collapsible=1;marginBottom=0;whiteSpace=wrap;html=1;" parent="1" vertex="1">
          <mxGeometry x="-260" y="131" width="160" height="66" as="geometry" />
        </mxCell>
        <mxCell id="WoOcYyq4Y0JdaSFRxMa6-36" value="- staffID: String" style="text;strokeColor=none;fillColor=none;align=left;verticalAlign=top;spacingLeft=4;spacingRight=4;overflow=hidden;rotatable=0;points=[[0,0.5],[1,0.5]];portConstraint=eastwest;whiteSpace=wrap;html=1;" parent="WoOcYyq4Y0JdaSFRxMa6-35" vertex="1">
          <mxGeometry y="40" width="160" height="26" as="geometry" />
        </mxCell>
        <mxCell id="0kV6bwqq7sijfGvT3mQX-2" style="edgeStyle=elbowEdgeStyle;rounded=0;orthogonalLoop=1;jettySize=auto;html=1;" parent="1" source="WoOcYyq4Y0JdaSFRxMa6-43" target="WoOcYyq4Y0JdaSFRxMa6-36" edge="1">
          <mxGeometry relative="1" as="geometry" />
        </mxCell>
        <mxCell id="WoOcYyq4Y0JdaSFRxMa6-43" value="&lt;strong data-end=&quot;3230&quot; data-start=&quot;3212&quot;&gt;FrontDeskStaff&lt;/strong&gt;" style="swimlane;fontStyle=1;align=center;verticalAlign=top;childLayout=stackLayout;horizontal=1;startSize=26;horizontalStack=0;resizeParent=1;resizeParentMax=0;resizeLast=0;collapsible=1;marginBottom=0;whiteSpace=wrap;html=1;" parent="1" vertex="1">
          <mxGeometry x="90" y="203" width="230" height="120" as="geometry" />
        </mxCell>
        <mxCell id="WoOcYyq4Y0JdaSFRxMa6-44" value="&lt;div&gt;+regusterCustomer():&lt;/div&gt;&lt;div&gt;+scheduleAppointment():&lt;/div&gt;&lt;div&gt;+createInvoice(String nationalID ):&lt;/div&gt;&lt;div&gt;+printDailyAppointments();&lt;/div&gt;" style="text;strokeColor=none;fillColor=none;align=left;verticalAlign=top;spacingLeft=4;spacingRight=4;overflow=hidden;rotatable=0;points=[[0,0.5],[1,0.5]];portConstraint=eastwest;whiteSpace=wrap;html=1;" parent="WoOcYyq4Y0JdaSFRxMa6-43" vertex="1">
          <mxGeometry y="26" width="230" height="94" as="geometry" />
        </mxCell>
        <mxCell id="WoOcYyq4Y0JdaSFRxMa6-45" value="Mechanic" style="swimlane;fontStyle=1;align=center;verticalAlign=top;childLayout=stackLayout;horizontal=1;startSize=26;horizontalStack=0;resizeParent=1;resizeParentMax=0;resizeLast=0;collapsible=1;marginBottom=0;whiteSpace=wrap;html=1;" parent="1" vertex="1">
          <mxGeometry x="-220" y="330" width="160" height="110" as="geometry" />
        </mxCell>
        <mxCell id="WoOcYyq4Y0JdaSFRxMa6-46" value="+ viewAllAppointments():&lt;div&gt;+addServiceReport():&lt;/div&gt;" style="text;strokeColor=none;fillColor=none;align=left;verticalAlign=top;spacingLeft=4;spacingRight=4;overflow=hidden;rotatable=0;points=[[0,0.5],[1,0.5]];portConstraint=eastwest;whiteSpace=wrap;html=1;" parent="WoOcYyq4Y0JdaSFRxMa6-45" vertex="1">
          <mxGeometry y="26" width="160" height="84" as="geometry" />
        </mxCell>
        <mxCell id="0kV6bwqq7sijfGvT3mQX-5" style="edgeStyle=elbowEdgeStyle;rounded=0;orthogonalLoop=1;jettySize=auto;html=1;entryX=0.099;entryY=1.077;entryDx=0;entryDy=0;entryPerimeter=0;" parent="1" source="WoOcYyq4Y0JdaSFRxMa6-47" target="WoOcYyq4Y0JdaSFRxMa6-36" edge="1">
          <mxGeometry relative="1" as="geometry">
            <mxPoint x="-290" y="262" as="targetPoint" />
            <Array as="points">
              <mxPoint x="-245" y="222" />
            </Array>
          </mxGeometry>
        </mxCell>
        <mxCell id="WoOcYyq4Y0JdaSFRxMa6-47" value="Technician" style="swimlane;fontStyle=1;align=center;verticalAlign=top;childLayout=stackLayout;horizontal=1;startSize=26;horizontalStack=0;resizeParent=1;resizeParentMax=0;resizeLast=0;collapsible=1;marginBottom=0;whiteSpace=wrap;html=1;" parent="1" vertex="1">
          <mxGeometry x="-410" y="450" width="290" height="130" as="geometry" />
        </mxCell>
        <mxCell id="WoOcYyq4Y0JdaSFRxMa6-48" value="+ addDiagnosticResults():&lt;div&gt;+ generateDailyReport(String nationalID, String carPlate, String notes, String time): String&lt;/div&gt;" style="text;strokeColor=none;fillColor=none;align=left;verticalAlign=top;spacingLeft=4;spacingRight=4;overflow=hidden;rotatable=0;points=[[0,0.5],[1,0.5]];portConstraint=eastwest;whiteSpace=wrap;html=1;" parent="WoOcYyq4Y0JdaSFRxMa6-47" vertex="1">
          <mxGeometry y="26" width="290" height="104" as="geometry" />
        </mxCell>
        <mxCell id="0kV6bwqq7sijfGvT3mQX-4" style="edgeStyle=elbowEdgeStyle;rounded=0;orthogonalLoop=1;jettySize=auto;html=1;entryX=0.813;entryY=0.885;entryDx=0;entryDy=0;entryPerimeter=0;elbow=vertical;" parent="1" source="WoOcYyq4Y0JdaSFRxMa6-45" target="WoOcYyq4Y0JdaSFRxMa6-36" edge="1">
          <mxGeometry relative="1" as="geometry" />
        </mxCell>
        <mxCell id="0kV6bwqq7sijfGvT3mQX-7" value="&lt;p style=&quot;margin:0px;margin-top:4px;text-align:center;&quot;&gt;&lt;b&gt;Car&lt;/b&gt;&lt;/p&gt;&lt;hr size=&quot;1&quot; style=&quot;border-style:solid;&quot;&gt;- make: String&lt;br&gt;-model: String&lt;div&gt;-plateNumber: String&lt;br&gt;&lt;div style=&quot;height:2px;&quot;&gt;-owner: customer&lt;/div&gt;&lt;/div&gt;" style="verticalAlign=top;align=left;overflow=fill;html=1;whiteSpace=wrap;" parent="1" vertex="1">
          <mxGeometry x="1220.06" y="120" width="140" height="90" as="geometry" />
        </mxCell>
        <mxCell id="0kV6bwqq7sijfGvT3mQX-9" value="" style="endArrow=diamondThin;endFill=0;endSize=24;html=1;rounded=0;edgeStyle=elbowEdgeStyle;exitX=0;exitY=0.25;exitDx=0;exitDy=0;entryX=1;entryY=0.25;entryDx=0;entryDy=0;" parent="1" source="0kV6bwqq7sijfGvT3mQX-7" target="WoOcYyq4Y0JdaSFRxMa6-6" edge="1">
          <mxGeometry width="160" relative="1" as="geometry">
            <mxPoint x="950" y="140" as="sourcePoint" />
            <mxPoint x="1110" y="140" as="targetPoint" />
          </mxGeometry>
        </mxCell>
        <mxCell id="0kV6bwqq7sijfGvT3mQX-10" value="Appointment" style="swimlane;fontStyle=1;align=center;verticalAlign=top;childLayout=stackLayout;horizontal=1;startSize=26;horizontalStack=0;resizeParent=1;resizeParentMax=0;resizeLast=0;collapsible=1;marginBottom=0;whiteSpace=wrap;html=1;" parent="1" vertex="1">
          <mxGeometry x="490" y="320" width="210" height="240" as="geometry" />
        </mxCell>
        <mxCell id="0kV6bwqq7sijfGvT3mQX-11" value="&lt;div&gt;- appointmentID: String&lt;/div&gt;&lt;div&gt;- date:&amp;nbsp;&lt;span style=&quot;background-color: transparent; color: light-dark(rgb(0, 0, 0), rgb(255, 255, 255));&quot;&gt;String&lt;/span&gt;&lt;/div&gt;&lt;div&gt;- timeSlot:&amp;nbsp;&lt;span style=&quot;background-color: transparent; color: light-dark(rgb(0, 0, 0), rgb(255, 255, 255));&quot;&gt;String&lt;/span&gt;&lt;/div&gt;&lt;div&gt;- car : Car&lt;/div&gt;&lt;div&gt;- mechanic : Mechanic&lt;/div&gt;&lt;div&gt;- technician : Technician&lt;/div&gt;&lt;div&gt;- frontDeskStaff : FrontDeskStaff&lt;/div&gt;&lt;div&gt;- status&lt;/div&gt;&lt;div&gt;&lt;br&gt;&lt;/div&gt;" style="text;strokeColor=none;fillColor=none;align=left;verticalAlign=top;spacingLeft=4;spacingRight=4;overflow=hidden;rotatable=0;points=[[0,0.5],[1,0.5]];portConstraint=eastwest;whiteSpace=wrap;html=1;" parent="0kV6bwqq7sijfGvT3mQX-10" vertex="1">
          <mxGeometry y="26" width="210" height="144" as="geometry" />
        </mxCell>
        <mxCell id="0kV6bwqq7sijfGvT3mQX-12" value="" style="line;strokeWidth=1;fillColor=none;align=left;verticalAlign=middle;spacingTop=-1;spacingLeft=3;spacingRight=3;rotatable=0;labelPosition=right;points=[];portConstraint=eastwest;strokeColor=inherit;" parent="0kV6bwqq7sijfGvT3mQX-10" vertex="1">
          <mxGeometry y="170" width="210" height="8" as="geometry" />
        </mxCell>
        <mxCell id="0kV6bwqq7sijfGvT3mQX-13" value="&lt;div&gt;+ schedule()&lt;/div&gt;&lt;div&gt;+ cancel()&lt;/div&gt;&lt;div&gt;+ getDetails()&lt;/div&gt;" style="text;strokeColor=none;fillColor=none;align=left;verticalAlign=top;spacingLeft=4;spacingRight=4;overflow=hidden;rotatable=0;points=[[0,0.5],[1,0.5]];portConstraint=eastwest;whiteSpace=wrap;html=1;" parent="0kV6bwqq7sijfGvT3mQX-10" vertex="1">
          <mxGeometry y="178" width="210" height="62" as="geometry" />
        </mxCell>
        <mxCell id="0kV6bwqq7sijfGvT3mQX-14" value="&lt;div&gt;ServiceReport&lt;/div&gt;" style="swimlane;fontStyle=1;align=center;verticalAlign=top;childLayout=stackLayout;horizontal=1;startSize=26;horizontalStack=0;resizeParent=1;resizeParentMax=0;resizeLast=0;collapsible=1;marginBottom=0;whiteSpace=wrap;html=1;" parent="1" vertex="1">
          <mxGeometry x="250" y="710" width="210" height="160" as="geometry" />
        </mxCell>
        <mxCell id="0kV6bwqq7sijfGvT3mQX-15" value="&lt;div&gt;&lt;div&gt;- reportID: String&lt;/div&gt;&lt;div&gt;- repairsPerformed: String&lt;/div&gt;&lt;div&gt;- partsUsed: String&lt;/div&gt;&lt;div&gt;- appointment : Appointment&lt;/div&gt;&lt;/div&gt;" style="text;strokeColor=none;fillColor=none;align=left;verticalAlign=top;spacingLeft=4;spacingRight=4;overflow=hidden;rotatable=0;points=[[0,0.5],[1,0.5]];portConstraint=eastwest;whiteSpace=wrap;html=1;" parent="0kV6bwqq7sijfGvT3mQX-14" vertex="1">
          <mxGeometry y="26" width="210" height="84" as="geometry" />
        </mxCell>
        <mxCell id="0kV6bwqq7sijfGvT3mQX-16" value="" style="line;strokeWidth=1;fillColor=none;align=left;verticalAlign=middle;spacingTop=-1;spacingLeft=3;spacingRight=3;rotatable=0;labelPosition=right;points=[];portConstraint=eastwest;strokeColor=inherit;" parent="0kV6bwqq7sijfGvT3mQX-14" vertex="1">
          <mxGeometry y="110" width="210" height="8" as="geometry" />
        </mxCell>
        <mxCell id="0kV6bwqq7sijfGvT3mQX-17" value="&lt;div&gt;+ addReport()&lt;/div&gt;&lt;div&gt;+ getReportDetails()&lt;/div&gt;" style="text;strokeColor=none;fillColor=none;align=left;verticalAlign=top;spacingLeft=4;spacingRight=4;overflow=hidden;rotatable=0;points=[[0,0.5],[1,0.5]];portConstraint=eastwest;whiteSpace=wrap;html=1;" parent="0kV6bwqq7sijfGvT3mQX-14" vertex="1">
          <mxGeometry y="118" width="210" height="42" as="geometry" />
        </mxCell>
        <mxCell id="0kV6bwqq7sijfGvT3mQX-18" value="DiagnosticResult" style="swimlane;fontStyle=1;align=center;verticalAlign=top;childLayout=stackLayout;horizontal=1;startSize=26;horizontalStack=0;resizeParent=1;resizeParentMax=0;resizeLast=0;collapsible=1;marginBottom=0;whiteSpace=wrap;html=1;" parent="1" vertex="1">
          <mxGeometry x="70" y="550" width="210" height="150" as="geometry" />
        </mxCell>
        <mxCell id="0kV6bwqq7sijfGvT3mQX-19" value="&lt;div&gt;&lt;div&gt;- resultID&lt;/div&gt;&lt;div&gt;- issuesFound&lt;/div&gt;&lt;div&gt;- recommendations&lt;/div&gt;&lt;div&gt;- appointment : Appointment&lt;/div&gt;&lt;/div&gt;" style="text;strokeColor=none;fillColor=none;align=left;verticalAlign=top;spacingLeft=4;spacingRight=4;overflow=hidden;rotatable=0;points=[[0,0.5],[1,0.5]];portConstraint=eastwest;whiteSpace=wrap;html=1;" parent="0kV6bwqq7sijfGvT3mQX-18" vertex="1">
          <mxGeometry y="26" width="210" height="74" as="geometry" />
        </mxCell>
        <mxCell id="0kV6bwqq7sijfGvT3mQX-20" value="" style="line;strokeWidth=1;fillColor=none;align=left;verticalAlign=middle;spacingTop=-1;spacingLeft=3;spacingRight=3;rotatable=0;labelPosition=right;points=[];portConstraint=eastwest;strokeColor=inherit;" parent="0kV6bwqq7sijfGvT3mQX-18" vertex="1">
          <mxGeometry y="100" width="210" height="8" as="geometry" />
        </mxCell>
        <mxCell id="0kV6bwqq7sijfGvT3mQX-21" value="&lt;div&gt;+ addResult()&lt;/div&gt;&lt;div&gt;+ generateReport()&lt;/div&gt;" style="text;strokeColor=none;fillColor=none;align=left;verticalAlign=top;spacingLeft=4;spacingRight=4;overflow=hidden;rotatable=0;points=[[0,0.5],[1,0.5]];portConstraint=eastwest;whiteSpace=wrap;html=1;" parent="0kV6bwqq7sijfGvT3mQX-18" vertex="1">
          <mxGeometry y="108" width="210" height="42" as="geometry" />
        </mxCell>
        <mxCell id="0kV6bwqq7sijfGvT3mQX-23" value="" style="endArrow=none;html=1;edgeStyle=elbowEdgeStyle;rounded=0;entryX=0;entryY=0.75;entryDx=0;entryDy=0;exitX=1.009;exitY=0.642;exitDx=0;exitDy=0;exitPerimeter=0;" parent="1" source="WoOcYyq4Y0JdaSFRxMa6-7" target="0kV6bwqq7sijfGvT3mQX-7" edge="1">
          <mxGeometry relative="1" as="geometry">
            <mxPoint x="980" y="190" as="sourcePoint" />
            <mxPoint x="1140" y="190" as="targetPoint" />
          </mxGeometry>
        </mxCell>
        <mxCell id="0kV6bwqq7sijfGvT3mQX-24" value="1car has only" style="edgeLabel;resizable=0;html=1;align=left;verticalAlign=bottom;" parent="0kV6bwqq7sijfGvT3mQX-23" connectable="0" vertex="1">
          <mxGeometry x="-1" relative="1" as="geometry">
            <mxPoint y="22" as="offset" />
          </mxGeometry>
        </mxCell>
        <mxCell id="0kV6bwqq7sijfGvT3mQX-25" value="customer can have1..*" style="edgeLabel;resizable=0;html=1;align=right;verticalAlign=bottom;" parent="0kV6bwqq7sijfGvT3mQX-23" connectable="0" vertex="1">
          <mxGeometry x="1" relative="1" as="geometry">
            <mxPoint x="-10" as="offset" />
          </mxGeometry>
        </mxCell>
        <mxCell id="0kV6bwqq7sijfGvT3mQX-26" value="" style="endArrow=none;html=1;edgeStyle=orthogonalEdgeStyle;rounded=0;entryX=0.339;entryY=1.015;entryDx=0;entryDy=0;entryPerimeter=0;" parent="1" source="0kV6bwqq7sijfGvT3mQX-11" target="0kV6bwqq7sijfGvT3mQX-7" edge="1">
          <mxGeometry relative="1" as="geometry">
            <mxPoint x="960" y="380" as="sourcePoint" />
            <mxPoint x="1120" y="380" as="targetPoint" />
          </mxGeometry>
        </mxCell>
        <mxCell id="0kV6bwqq7sijfGvT3mQX-27" value="1..* can can have" style="edgeLabel;resizable=0;html=1;align=left;verticalAlign=bottom;" parent="0kV6bwqq7sijfGvT3mQX-26" connectable="0" vertex="1">
          <mxGeometry x="-1" relative="1" as="geometry" />
        </mxCell>
        <mxCell id="0kV6bwqq7sijfGvT3mQX-28" value="1 for each car" style="edgeLabel;resizable=0;html=1;align=right;verticalAlign=bottom;" parent="0kV6bwqq7sijfGvT3mQX-26" connectable="0" vertex="1">
          <mxGeometry x="1" relative="1" as="geometry">
            <mxPoint x="72" y="19" as="offset" />
          </mxGeometry>
        </mxCell>
        <mxCell id="0kV6bwqq7sijfGvT3mQX-29" value="" style="endArrow=none;html=1;edgeStyle=orthogonalEdgeStyle;rounded=0;exitX=1;exitY=0.5;exitDx=0;exitDy=0;entryX=0;entryY=0.5;entryDx=0;entryDy=0;" parent="1" source="WoOcYyq4Y0JdaSFRxMa6-44" target="0kV6bwqq7sijfGvT3mQX-11" edge="1">
          <mxGeometry relative="1" as="geometry">
            <mxPoint x="70" y="260" as="sourcePoint" />
            <mxPoint x="230" y="260" as="targetPoint" />
          </mxGeometry>
        </mxCell>
        <mxCell id="0kV6bwqq7sijfGvT3mQX-30" value="1 scheduled by" style="edgeLabel;resizable=0;html=1;align=left;verticalAlign=bottom;" parent="0kV6bwqq7sijfGvT3mQX-29" connectable="0" vertex="1">
          <mxGeometry x="-1" relative="1" as="geometry" />
        </mxCell>
        <mxCell id="0kV6bwqq7sijfGvT3mQX-31" value="&amp;nbsp;can schedule1..*" style="edgeLabel;resizable=0;html=1;align=right;verticalAlign=bottom;" parent="0kV6bwqq7sijfGvT3mQX-29" connectable="0" vertex="1">
          <mxGeometry x="1" relative="1" as="geometry" />
        </mxCell>
        <mxCell id="0kV6bwqq7sijfGvT3mQX-32" value="" style="endArrow=none;html=1;edgeStyle=orthogonalEdgeStyle;rounded=0;entryX=-0.004;entryY=0.853;entryDx=0;entryDy=0;entryPerimeter=0;" parent="1" source="WoOcYyq4Y0JdaSFRxMa6-46" target="0kV6bwqq7sijfGvT3mQX-11" edge="1">
          <mxGeometry relative="1" as="geometry">
            <mxPoint x="10" y="470" as="sourcePoint" />
            <mxPoint x="170" y="470" as="targetPoint" />
          </mxGeometry>
        </mxCell>
        <mxCell id="0kV6bwqq7sijfGvT3mQX-33" value="1 assigned for" style="edgeLabel;resizable=0;html=1;align=left;verticalAlign=bottom;" parent="0kV6bwqq7sijfGvT3mQX-32" connectable="0" vertex="1">
          <mxGeometry x="-1" relative="1" as="geometry" />
        </mxCell>
        <mxCell id="0kV6bwqq7sijfGvT3mQX-34" value="&amp;nbsp;can have appointment1..*" style="edgeLabel;resizable=0;html=1;align=right;verticalAlign=bottom;" parent="0kV6bwqq7sijfGvT3mQX-32" connectable="0" vertex="1">
          <mxGeometry x="1" relative="1" as="geometry" />
        </mxCell>
        <mxCell id="0kV6bwqq7sijfGvT3mQX-35" value="" style="endArrow=none;html=1;edgeStyle=orthogonalEdgeStyle;rounded=0;exitX=1;exitY=0.5;exitDx=0;exitDy=0;entryX=0;entryY=0.5;entryDx=0;entryDy=0;" parent="1" source="WoOcYyq4Y0JdaSFRxMa6-48" target="0kV6bwqq7sijfGvT3mQX-13" edge="1">
          <mxGeometry relative="1" as="geometry">
            <mxPoint x="-190" y="620" as="sourcePoint" />
            <mxPoint x="-30" y="620" as="targetPoint" />
          </mxGeometry>
        </mxCell>
        <mxCell id="0kV6bwqq7sijfGvT3mQX-36" value="1 assigned for" style="edgeLabel;resizable=0;html=1;align=left;verticalAlign=bottom;" parent="0kV6bwqq7sijfGvT3mQX-35" connectable="0" vertex="1">
          <mxGeometry x="-1" relative="1" as="geometry" />
        </mxCell>
        <mxCell id="0kV6bwqq7sijfGvT3mQX-37" value="can have1..*" style="edgeLabel;resizable=0;html=1;align=right;verticalAlign=bottom;" parent="0kV6bwqq7sijfGvT3mQX-35" connectable="0" vertex="1">
          <mxGeometry x="1" relative="1" as="geometry" />
        </mxCell>
        <mxCell id="0kV6bwqq7sijfGvT3mQX-38" value="" style="endArrow=none;html=1;edgeStyle=orthogonalEdgeStyle;rounded=0;entryX=0.766;entryY=1.008;entryDx=0;entryDy=0;entryPerimeter=0;" parent="1" source="0kV6bwqq7sijfGvT3mQX-15" target="0kV6bwqq7sijfGvT3mQX-13" edge="1">
          <mxGeometry relative="1" as="geometry">
            <mxPoint x="490" y="690" as="sourcePoint" />
            <mxPoint x="650" y="690" as="targetPoint" />
          </mxGeometry>
        </mxCell>
        <mxCell id="0kV6bwqq7sijfGvT3mQX-39" value="1 can have" style="edgeLabel;resizable=0;html=1;align=left;verticalAlign=bottom;" parent="0kV6bwqq7sijfGvT3mQX-38" connectable="0" vertex="1">
          <mxGeometry x="-1" relative="1" as="geometry" />
        </mxCell>
        <mxCell id="0kV6bwqq7sijfGvT3mQX-40" value="1 linked" style="edgeLabel;resizable=0;html=1;align=right;verticalAlign=bottom;" parent="0kV6bwqq7sijfGvT3mQX-38" connectable="0" vertex="1">
          <mxGeometry x="1" relative="1" as="geometry">
            <mxPoint x="49" y="19" as="offset" />
          </mxGeometry>
        </mxCell>
        <mxCell id="0kV6bwqq7sijfGvT3mQX-44" value="" style="endArrow=none;html=1;edgeStyle=elbowEdgeStyle;rounded=0;entryX=-0.008;entryY=0.847;entryDx=0;entryDy=0;entryPerimeter=0;exitX=1;exitY=0.5;exitDx=0;exitDy=0;" parent="1" source="0kV6bwqq7sijfGvT3mQX-19" target="0kV6bwqq7sijfGvT3mQX-13" edge="1">
          <mxGeometry relative="1" as="geometry">
            <mxPoint x="320" y="630" as="sourcePoint" />
            <mxPoint x="341" y="500" as="targetPoint" />
          </mxGeometry>
        </mxCell>
        <mxCell id="0kV6bwqq7sijfGvT3mQX-45" value="1 can have" style="edgeLabel;resizable=0;html=1;align=left;verticalAlign=bottom;" parent="0kV6bwqq7sijfGvT3mQX-44" connectable="0" vertex="1">
          <mxGeometry x="-1" relative="1" as="geometry" />
        </mxCell>
        <mxCell id="0kV6bwqq7sijfGvT3mQX-46" value="1 linked" style="edgeLabel;resizable=0;html=1;align=right;verticalAlign=bottom;" parent="0kV6bwqq7sijfGvT3mQX-44" connectable="0" vertex="1">
          <mxGeometry x="1" relative="1" as="geometry">
            <mxPoint x="-16" y="19" as="offset" />
          </mxGeometry>
        </mxCell>
        <mxCell id="5-DonEgM_byg19dDh3We-1" value="Invoice" style="swimlane;fontStyle=1;align=center;verticalAlign=top;childLayout=stackLayout;horizontal=1;startSize=26;horizontalStack=0;resizeParent=1;resizeParentMax=0;resizeLast=0;collapsible=1;marginBottom=0;whiteSpace=wrap;html=1;" parent="1" vertex="1">
          <mxGeometry x="10" y="-160" width="160" height="180" as="geometry" />
        </mxCell>
        <mxCell id="5-DonEgM_byg19dDh3We-2" value="- invoiceID: String&lt;div&gt;- customerID: String&lt;/div&gt;&lt;div&gt;-&amp;nbsp;amount: double&lt;/div&gt;&lt;div&gt;-&amp;nbsp;discount: double&lt;/div&gt;&lt;div&gt;-&amp;nbsp;totalAmount: double&lt;/div&gt;&lt;div&gt;-&amp;nbsp;date: Date&lt;/div&gt;" style="text;strokeColor=none;fillColor=none;align=left;verticalAlign=top;spacingLeft=4;spacingRight=4;overflow=hidden;rotatable=0;points=[[0,0.5],[1,0.5]];portConstraint=eastwest;whiteSpace=wrap;html=1;" parent="5-DonEgM_byg19dDh3We-1" vertex="1">
          <mxGeometry y="26" width="160" height="104" as="geometry" />
        </mxCell>
        <mxCell id="5-DonEgM_byg19dDh3We-3" value="" style="line;strokeWidth=1;fillColor=none;align=left;verticalAlign=middle;spacingTop=-1;spacingLeft=3;spacingRight=3;rotatable=0;labelPosition=right;points=[];portConstraint=eastwest;strokeColor=inherit;" parent="5-DonEgM_byg19dDh3We-1" vertex="1">
          <mxGeometry y="130" width="160" height="8" as="geometry" />
        </mxCell>
        <mxCell id="5-DonEgM_byg19dDh3We-4" value="+ calculateTotal()&lt;div&gt;+&amp;nbsp;printInvoice()&lt;/div&gt;" style="text;strokeColor=none;fillColor=none;align=left;verticalAlign=top;spacingLeft=4;spacingRight=4;overflow=hidden;rotatable=0;points=[[0,0.5],[1,0.5]];portConstraint=eastwest;whiteSpace=wrap;html=1;" parent="5-DonEgM_byg19dDh3We-1" vertex="1">
          <mxGeometry y="138" width="160" height="42" as="geometry" />
        </mxCell>
        <mxCell id="5-DonEgM_byg19dDh3We-5" value="" style="endArrow=open;endSize=12;dashed=1;html=1;rounded=0;exitX=0.187;exitY=0.042;exitDx=0;exitDy=0;entryX=0.503;entryY=1;entryDx=0;entryDy=0;entryPerimeter=0;edgeStyle=elbowEdgeStyle;elbow=vertical;jumpStyle=arc;exitPerimeter=0;" parent="1" source="WoOcYyq4Y0JdaSFRxMa6-43" target="5-DonEgM_byg19dDh3We-4" edge="1">
          <mxGeometry x="-0.2003" y="-46" width="160" relative="1" as="geometry">
            <mxPoint x="135" y="197" as="sourcePoint" />
            <mxPoint x="230" y="140" as="targetPoint" />
            <mxPoint x="25" y="8" as="offset" />
          </mxGeometry>
        </mxCell>
        <mxCell id="dkGfj7ZoInxx-1Snwho5-2" value="«interface»&lt;br&gt;&lt;b&gt;Discountable&lt;/b&gt;" style="swimlane;fontStyle=0;childLayout=stackLayout;horizontal=1;startSize=26;fillColor=none;horizontalStack=0;resizeParent=1;resizeParentMax=0;resizeLast=0;collapsible=1;marginBottom=0;whiteSpace=wrap;html=1;" parent="1" vertex="1">
          <mxGeometry x="1080" y="230" width="160" height="52" as="geometry" />
        </mxCell>
        <mxCell id="dkGfj7ZoInxx-1Snwho5-3" value="+ getDiscount(): double" style="text;strokeColor=none;fillColor=none;align=left;verticalAlign=top;spacingLeft=4;spacingRight=4;overflow=hidden;rotatable=0;points=[[0,0.5],[1,0.5]];portConstraint=eastwest;whiteSpace=wrap;html=1;" parent="dkGfj7ZoInxx-1Snwho5-2" vertex="1">
          <mxGeometry y="26" width="160" height="26" as="geometry" />
        </mxCell>
        <mxCell id="dkGfj7ZoInxx-1Snwho5-7" value="" style="endArrow=block;dashed=1;endFill=0;endSize=12;html=1;rounded=0;exitX=0.5;exitY=0;exitDx=0;exitDy=0;entryX=0.122;entryY=1.041;entryDx=0;entryDy=0;entryPerimeter=0;edgeStyle=elbowEdgeStyle;elbow=vertical;" parent="1" source="WoOcYyq4Y0JdaSFRxMa6-22" target="dkGfj7ZoInxx-1Snwho5-3" edge="1">
          <mxGeometry width="160" relative="1" as="geometry">
            <mxPoint x="930" y="590" as="sourcePoint" />
            <mxPoint x="1090" y="590" as="targetPoint" />
          </mxGeometry>
        </mxCell>
        <mxCell id="dkGfj7ZoInxx-1Snwho5-8" value="" style="endArrow=block;dashed=1;endFill=0;endSize=12;html=1;rounded=0;exitX=0.75;exitY=0;exitDx=0;exitDy=0;entryX=0.46;entryY=0.905;entryDx=0;entryDy=0;entryPerimeter=0;edgeStyle=elbowEdgeStyle;elbow=vertical;" parent="1" source="WoOcYyq4Y0JdaSFRxMa6-20" target="dkGfj7ZoInxx-1Snwho5-3" edge="1">
          <mxGeometry width="160" relative="1" as="geometry">
            <mxPoint x="1110" y="560" as="sourcePoint" />
            <mxPoint x="1270" y="560" as="targetPoint" />
          </mxGeometry>
        </mxCell>
      </root>
    </mxGraphModel>
  </diagram>
</mxfile>
